<mxfile host="app.diagrams.net" agent="Mozilla/5.0 (Windows NT 10.0; Win64; x64) AppleWebKit/537.36 (KHTML, like Gecko) Chrome/136.0.0.0 Safari/537.36 Edg/136.0.0.0" version="26.1.3">
  <diagram id="prtHgNgQTEPvFCAcTncT" name="Page-1">
    <mxGraphModel dx="1163" dy="636" grid="1" gridSize="10" guides="1" tooltips="1" connect="1" arrows="1" fold="1" page="1" pageScale="1" pageWidth="1169" pageHeight="827" background="#FFFFFF" math="0" shadow="0">
      <root>
        <mxCell id="0" />
        <mxCell id="1" parent="0" />
        <mxCell id="RPcaswgte-qVBd7CzCNU-9" value="" style="shape=table;childLayout=tableLayout;startSize=0;fillColor=#dae8fc;collapsible=0;recursiveResize=0;expand=0;swimlaneFillColor=#D4E1F5;strokeColor=#6c8ebf;" vertex="1" parent="1">
          <mxGeometry x="110" y="260" width="610" height="530" as="geometry" />
        </mxCell>
        <mxCell id="RPcaswgte-qVBd7CzCNU-10" value="" style="shape=tableRow;horizontal=0;swimlaneHead=0;swimlaneBody=0;top=0;left=0;strokeColor=inherit;bottom=0;right=0;dropTarget=0;fontStyle=0;fillColor=default;points=[[0,0.5],[1,0.5]];portConstraint=eastwest;startSize=0;collapsible=0;recursiveResize=0;expand=0;" vertex="1" parent="RPcaswgte-qVBd7CzCNU-9">
          <mxGeometry width="610" height="320" as="geometry" />
        </mxCell>
        <mxCell id="RPcaswgte-qVBd7CzCNU-11" value="Cliente externo" style="swimlane;swimlaneHead=0;swimlaneBody=0;fontStyle=0;strokeColor=#b85450;connectable=0;fillColor=#f8cecc;startSize=40;collapsible=0;recursiveResize=0;expand=0;swimlaneFillColor=#D4E1F5;" vertex="1" parent="RPcaswgte-qVBd7CzCNU-10">
          <mxGeometry width="126" height="320" as="geometry">
            <mxRectangle width="126" height="320" as="alternateBounds" />
          </mxGeometry>
        </mxCell>
        <mxCell id="RPcaswgte-qVBd7CzCNU-22" value="Iniciar sesión" style="ellipse;whiteSpace=wrap;html=1;" vertex="1" parent="RPcaswgte-qVBd7CzCNU-11">
          <mxGeometry x="11" y="60" width="90" height="50" as="geometry" />
        </mxCell>
        <mxCell id="RPcaswgte-qVBd7CzCNU-51" value="" style="edgeStyle=orthogonalEdgeStyle;rounded=0;orthogonalLoop=1;jettySize=auto;html=1;" edge="1" parent="RPcaswgte-qVBd7CzCNU-11" source="RPcaswgte-qVBd7CzCNU-24" target="RPcaswgte-qVBd7CzCNU-25">
          <mxGeometry relative="1" as="geometry" />
        </mxCell>
        <mxCell id="RPcaswgte-qVBd7CzCNU-24" value="Seleccionar&lt;div&gt;crear nuevo&amp;nbsp;&lt;/div&gt;&lt;div&gt;ticket&lt;/div&gt;" style="rounded=0;whiteSpace=wrap;html=1;fontFamily=Helvetica;fontSize=12;fontColor=#000000;align=center;" vertex="1" parent="RPcaswgte-qVBd7CzCNU-11">
          <mxGeometry x="21" y="140" width="80" height="60" as="geometry" />
        </mxCell>
        <mxCell id="dNxyNK7c78bLwvsdeMH5-25" value="" style="edgeStyle=orthogonalEdgeStyle;rounded=0;orthogonalLoop=1;jettySize=auto;html=1;exitX=0.5;exitY=1;exitDx=0;exitDy=0;" parent="RPcaswgte-qVBd7CzCNU-11" source="RPcaswgte-qVBd7CzCNU-22" edge="1">
          <mxGeometry relative="1" as="geometry">
            <mxPoint x="60" y="141" as="targetPoint" />
            <Array as="points">
              <mxPoint x="60" y="110" />
            </Array>
          </mxGeometry>
        </mxCell>
        <mxCell id="RPcaswgte-qVBd7CzCNU-25" value="Completar&lt;div&gt;formulario&lt;/div&gt;" style="rounded=0;whiteSpace=wrap;html=1;fontFamily=Helvetica;fontSize=12;fontColor=#000000;align=center;" vertex="1" parent="RPcaswgte-qVBd7CzCNU-11">
          <mxGeometry x="21" y="240" width="80" height="60" as="geometry" />
        </mxCell>
        <mxCell id="RPcaswgte-qVBd7CzCNU-26" value="Iniciar sesión" style="ellipse;whiteSpace=wrap;html=1;" vertex="1" parent="RPcaswgte-qVBd7CzCNU-11">
          <mxGeometry x="16" y="340" width="90" height="50" as="geometry" />
        </mxCell>
        <mxCell id="RPcaswgte-qVBd7CzCNU-50" value="" style="endArrow=classic;html=1;rounded=0;entryX=0.5;entryY=0;entryDx=0;entryDy=0;" edge="1" parent="RPcaswgte-qVBd7CzCNU-11" target="RPcaswgte-qVBd7CzCNU-25">
          <mxGeometry width="50" height="50" relative="1" as="geometry">
            <mxPoint x="60" y="200" as="sourcePoint" />
            <mxPoint x="106" y="150" as="targetPoint" />
          </mxGeometry>
        </mxCell>
        <mxCell id="RPcaswgte-qVBd7CzCNU-12" value="Empleado/Usuario&#xa;interno" style="swimlane;swimlaneHead=0;swimlaneBody=0;fontStyle=0;strokeColor=#6c8ebf;connectable=0;fillColor=#DAE8FC;startSize=40;collapsible=0;recursiveResize=0;expand=0;swimlaneFillColor=#D4E1F5;" vertex="1" parent="RPcaswgte-qVBd7CzCNU-10">
          <mxGeometry x="126" width="110" height="320" as="geometry">
            <mxRectangle width="110" height="320" as="alternateBounds" />
          </mxGeometry>
        </mxCell>
        <mxCell id="RPcaswgte-qVBd7CzCNU-27" value="Ticket&amp;nbsp;&lt;div&gt;valido&lt;/div&gt;" style="rhombus;whiteSpace=wrap;html=1;fontFamily=Helvetica;fontSize=12;fontColor=#000000;align=center;" vertex="1" parent="RPcaswgte-qVBd7CzCNU-12">
          <mxGeometry x="20" y="190" width="70" height="70" as="geometry" />
        </mxCell>
        <mxCell id="RPcaswgte-qVBd7CzCNU-55" value="" style="endArrow=classic;html=1;rounded=0;entryX=0.286;entryY=0.286;entryDx=0;entryDy=0;entryPerimeter=0;" edge="1" parent="RPcaswgte-qVBd7CzCNU-12" target="RPcaswgte-qVBd7CzCNU-27">
          <mxGeometry width="50" height="50" relative="1" as="geometry">
            <mxPoint x="-25" y="180" as="sourcePoint" />
            <mxPoint x="28" y="197" as="targetPoint" />
            <Array as="points">
              <mxPoint x="24" y="180" />
            </Array>
          </mxGeometry>
        </mxCell>
        <mxCell id="RPcaswgte-qVBd7CzCNU-13" value="Técnico de&#xa;soporte" style="swimlane;swimlaneHead=0;swimlaneBody=0;fontStyle=0;strokeColor=#6c8ebf;connectable=0;fillColor=#dae8fc;startSize=40;collapsible=0;recursiveResize=0;expand=0;swimlaneFillColor=#D4E1F5;" vertex="1" parent="RPcaswgte-qVBd7CzCNU-10">
          <mxGeometry x="236" width="134" height="320" as="geometry">
            <mxRectangle width="134" height="320" as="alternateBounds" />
          </mxGeometry>
        </mxCell>
        <mxCell id="RPcaswgte-qVBd7CzCNU-66" value="Ver detalle de&amp;nbsp;&lt;div&gt;ticket&lt;/div&gt;" style="rounded=0;whiteSpace=wrap;html=1;fontFamily=Helvetica;fontSize=12;fontColor=#000000;align=center;" vertex="1" parent="RPcaswgte-qVBd7CzCNU-13">
          <mxGeometry x="20" y="190" width="100" height="40" as="geometry" />
        </mxCell>
        <mxCell id="RPcaswgte-qVBd7CzCNU-64" value="Visualizar panel&lt;div&gt;de tickets&amp;nbsp;&lt;/div&gt;&lt;div&gt;asignados&lt;/div&gt;" style="rounded=0;whiteSpace=wrap;html=1;fontFamily=Helvetica;fontSize=12;fontColor=#000000;align=center;" vertex="1" parent="RPcaswgte-qVBd7CzCNU-13">
          <mxGeometry x="10" y="110" width="110" height="50" as="geometry" />
        </mxCell>
        <mxCell id="RPcaswgte-qVBd7CzCNU-63" value="" style="edgeStyle=orthogonalEdgeStyle;rounded=0;orthogonalLoop=1;jettySize=auto;html=1;exitX=0.5;exitY=1;exitDx=0;exitDy=0;" edge="1" parent="RPcaswgte-qVBd7CzCNU-13" source="RPcaswgte-qVBd7CzCNU-64">
          <mxGeometry relative="1" as="geometry">
            <mxPoint x="52" y="180" as="sourcePoint" />
            <mxPoint x="50" y="195" as="targetPoint" />
          </mxGeometry>
        </mxCell>
        <mxCell id="RPcaswgte-qVBd7CzCNU-62" value="Iniciar sesión" style="ellipse;whiteSpace=wrap;html=1;" vertex="1" parent="RPcaswgte-qVBd7CzCNU-13">
          <mxGeometry x="10" y="50" width="90" height="40" as="geometry" />
        </mxCell>
        <mxCell id="RPcaswgte-qVBd7CzCNU-65" value="" style="edgeStyle=orthogonalEdgeStyle;rounded=0;orthogonalLoop=1;jettySize=auto;html=1;exitX=0.5;exitY=1;exitDx=0;exitDy=0;" edge="1" parent="RPcaswgte-qVBd7CzCNU-13" source="RPcaswgte-qVBd7CzCNU-62">
          <mxGeometry relative="1" as="geometry">
            <mxPoint x="54" y="110" as="targetPoint" />
            <Array as="points">
              <mxPoint x="55" y="100" />
              <mxPoint x="54" y="100" />
            </Array>
          </mxGeometry>
        </mxCell>
        <mxCell id="RPcaswgte-qVBd7CzCNU-69" value="Actualizar&amp;nbsp;&lt;div&gt;estado del&amp;nbsp;&lt;/div&gt;&lt;div&gt;ticket&lt;/div&gt;" style="rounded=0;whiteSpace=wrap;html=1;fontFamily=Helvetica;fontSize=12;fontColor=#000000;align=center;" vertex="1" parent="RPcaswgte-qVBd7CzCNU-13">
          <mxGeometry x="25" y="260" width="80" height="40" as="geometry" />
        </mxCell>
        <mxCell id="RPcaswgte-qVBd7CzCNU-80" value="" style="endArrow=classic;html=1;rounded=0;" edge="1" parent="RPcaswgte-qVBd7CzCNU-13">
          <mxGeometry width="50" height="50" relative="1" as="geometry">
            <mxPoint x="64" y="300" as="sourcePoint" />
            <mxPoint x="65" y="330" as="targetPoint" />
          </mxGeometry>
        </mxCell>
        <mxCell id="RPcaswgte-qVBd7CzCNU-14" value="Administrador&#xa;del&#xa;sistema" style="swimlane;swimlaneHead=0;swimlaneBody=0;fontStyle=0;strokeColor=#82b366;connectable=0;fillColor=#D5E8D4;startSize=40;collapsible=0;recursiveResize=0;expand=0;swimlaneFillColor=#D4E1F5;" vertex="1" parent="RPcaswgte-qVBd7CzCNU-10">
          <mxGeometry x="370" width="120" height="320" as="geometry">
            <mxRectangle width="120" height="320" as="alternateBounds" />
          </mxGeometry>
        </mxCell>
        <mxCell id="RPcaswgte-qVBd7CzCNU-82" value="Iniciar sesión" style="ellipse;whiteSpace=wrap;html=1;" vertex="1" parent="RPcaswgte-qVBd7CzCNU-14">
          <mxGeometry x="15" y="50" width="90" height="40" as="geometry" />
        </mxCell>
        <mxCell id="RPcaswgte-qVBd7CzCNU-83" value="Gestionar&amp;nbsp;&lt;div&gt;usuarios&lt;/div&gt;" style="rounded=0;whiteSpace=wrap;html=1;fontFamily=Helvetica;fontSize=12;fontColor=#000000;align=center;" vertex="1" parent="RPcaswgte-qVBd7CzCNU-14">
          <mxGeometry x="20" y="110" width="80" height="40" as="geometry" />
        </mxCell>
        <mxCell id="RPcaswgte-qVBd7CzCNU-88" value="" style="edgeStyle=orthogonalEdgeStyle;rounded=0;orthogonalLoop=1;jettySize=auto;html=1;entryX=0.363;entryY=0;entryDx=0;entryDy=0;entryPerimeter=0;exitX=0.5;exitY=1;exitDx=0;exitDy=0;" edge="1" parent="RPcaswgte-qVBd7CzCNU-14" source="RPcaswgte-qVBd7CzCNU-83" target="RPcaswgte-qVBd7CzCNU-85">
          <mxGeometry relative="1" as="geometry" />
        </mxCell>
        <mxCell id="RPcaswgte-qVBd7CzCNU-85" value="Asignar&amp;nbsp;&lt;div&gt;tickets&lt;/div&gt;" style="rounded=0;whiteSpace=wrap;html=1;fontFamily=Helvetica;fontSize=12;fontColor=#000000;align=center;" vertex="1" parent="RPcaswgte-qVBd7CzCNU-14">
          <mxGeometry x="25" y="180" width="80" height="40" as="geometry" />
        </mxCell>
        <mxCell id="RPcaswgte-qVBd7CzCNU-84" value="Generar&amp;nbsp;&lt;div&gt;informe&amp;nbsp;&lt;/div&gt;" style="rounded=0;whiteSpace=wrap;html=1;fontFamily=Helvetica;fontSize=12;fontColor=#000000;align=center;" vertex="1" parent="RPcaswgte-qVBd7CzCNU-14">
          <mxGeometry x="25" y="260" width="80" height="40" as="geometry" />
        </mxCell>
        <mxCell id="RPcaswgte-qVBd7CzCNU-87" value="" style="endArrow=classic;html=1;rounded=0;entryX=0.5;entryY=0;entryDx=0;entryDy=0;exitX=0.5;exitY=1;exitDx=0;exitDy=0;" edge="1" parent="RPcaswgte-qVBd7CzCNU-14" source="RPcaswgte-qVBd7CzCNU-82" target="RPcaswgte-qVBd7CzCNU-83">
          <mxGeometry width="50" height="50" relative="1" as="geometry">
            <mxPoint x="64.5" y="90" as="sourcePoint" />
            <mxPoint x="64.5" y="170" as="targetPoint" />
          </mxGeometry>
        </mxCell>
        <mxCell id="RPcaswgte-qVBd7CzCNU-90" value="" style="endArrow=classic;html=1;rounded=0;entryX=0.5;entryY=0;entryDx=0;entryDy=0;exitX=0.5;exitY=1;exitDx=0;exitDy=0;" edge="1" parent="RPcaswgte-qVBd7CzCNU-14" source="RPcaswgte-qVBd7CzCNU-85" target="RPcaswgte-qVBd7CzCNU-84">
          <mxGeometry width="50" height="50" relative="1" as="geometry">
            <mxPoint x="190" y="190" as="sourcePoint" />
            <mxPoint x="330" y="170" as="targetPoint" />
            <Array as="points" />
          </mxGeometry>
        </mxCell>
        <mxCell id="RPcaswgte-qVBd7CzCNU-94" value="" style="endArrow=classic;html=1;rounded=0;entryX=0;entryY=0.5;entryDx=0;entryDy=0;" edge="1" parent="RPcaswgte-qVBd7CzCNU-14" target="RPcaswgte-qVBd7CzCNU-76">
          <mxGeometry width="50" height="50" relative="1" as="geometry">
            <mxPoint x="70" y="300" as="sourcePoint" />
            <mxPoint x="70" y="350" as="targetPoint" />
            <Array as="points">
              <mxPoint x="70" y="350" />
            </Array>
          </mxGeometry>
        </mxCell>
        <mxCell id="RPcaswgte-qVBd7CzCNU-15" value="Sistema PHP&#xa;Backend" style="swimlane;swimlaneHead=0;swimlaneBody=0;fontStyle=0;strokeColor=#9673a6;connectable=0;fillColor=#DAE8FC;startSize=40;collapsible=0;recursiveResize=0;expand=0;swimlaneFillColor=#DAE8FC;" vertex="1" parent="RPcaswgte-qVBd7CzCNU-10">
          <mxGeometry x="490" width="120" height="320" as="geometry">
            <mxRectangle width="120" height="320" as="alternateBounds" />
          </mxGeometry>
        </mxCell>
        <mxCell id="RPcaswgte-qVBd7CzCNU-59" value="" style="endArrow=classic;html=1;rounded=0;exitX=0.914;exitY=0.571;exitDx=0;exitDy=0;exitPerimeter=0;entryX=0;entryY=0.5;entryDx=0;entryDy=0;" edge="1" parent="RPcaswgte-qVBd7CzCNU-10" source="RPcaswgte-qVBd7CzCNU-27" target="RPcaswgte-qVBd7CzCNU-66">
          <mxGeometry width="50" height="50" relative="1" as="geometry">
            <mxPoint x="216" y="250" as="sourcePoint" />
            <mxPoint x="250" y="250" as="targetPoint" />
            <Array as="points" />
          </mxGeometry>
        </mxCell>
        <mxCell id="RPcaswgte-qVBd7CzCNU-68" value="" style="endArrow=classic;html=1;rounded=0;exitX=0.39;exitY=1;exitDx=0;exitDy=0;exitPerimeter=0;" edge="1" parent="RPcaswgte-qVBd7CzCNU-10" source="RPcaswgte-qVBd7CzCNU-66">
          <mxGeometry width="50" height="50" relative="1" as="geometry">
            <mxPoint x="246" y="248" as="sourcePoint" />
            <mxPoint x="295" y="260" as="targetPoint" />
          </mxGeometry>
        </mxCell>
        <mxCell id="RPcaswgte-qVBd7CzCNU-16" style="shape=tableRow;horizontal=0;swimlaneHead=0;swimlaneBody=0;top=0;left=0;strokeColor=inherit;bottom=0;right=0;dropTarget=0;fontStyle=0;fillColor=none;points=[[0,0.5],[1,0.5]];portConstraint=eastwest;startSize=0;collapsible=0;recursiveResize=0;expand=0;" vertex="1" parent="RPcaswgte-qVBd7CzCNU-9">
          <mxGeometry y="320" width="610" height="210" as="geometry" />
        </mxCell>
        <mxCell id="RPcaswgte-qVBd7CzCNU-17" style="swimlane;swimlaneHead=0;swimlaneBody=0;fontStyle=0;strokeColor=inherit;connectable=0;fillColor=none;startSize=130;collapsible=0;recursiveResize=0;expand=0;" vertex="1" parent="RPcaswgte-qVBd7CzCNU-16">
          <mxGeometry width="126" height="210" as="geometry">
            <mxRectangle width="126" height="210" as="alternateBounds" />
          </mxGeometry>
        </mxCell>
        <mxCell id="RPcaswgte-qVBd7CzCNU-18" style="swimlane;swimlaneHead=0;swimlaneBody=0;fontStyle=0;strokeColor=inherit;connectable=0;fillColor=none;startSize=130;collapsible=0;recursiveResize=0;expand=0;" vertex="1" parent="RPcaswgte-qVBd7CzCNU-16">
          <mxGeometry x="126" width="110" height="210" as="geometry">
            <mxRectangle width="110" height="210" as="alternateBounds" />
          </mxGeometry>
        </mxCell>
        <mxCell id="RPcaswgte-qVBd7CzCNU-19" value="" style="swimlane;swimlaneHead=0;swimlaneBody=0;fontStyle=0;strokeColor=inherit;connectable=0;fillColor=none;startSize=130;collapsible=0;recursiveResize=0;expand=0;" vertex="1" parent="RPcaswgte-qVBd7CzCNU-16">
          <mxGeometry x="236" width="134" height="210" as="geometry">
            <mxRectangle width="134" height="210" as="alternateBounds" />
          </mxGeometry>
        </mxCell>
        <mxCell id="RPcaswgte-qVBd7CzCNU-77" value="Agregar&amp;nbsp;&lt;div&gt;comentarios y archivos&lt;/div&gt;" style="rounded=0;whiteSpace=wrap;html=1;fontFamily=Helvetica;fontSize=12;fontColor=#000000;align=center;" vertex="1" parent="RPcaswgte-qVBd7CzCNU-19">
          <mxGeometry x="25" y="10" width="80" height="40" as="geometry" />
        </mxCell>
        <mxCell id="RPcaswgte-qVBd7CzCNU-78" value="Cerrar&amp;nbsp;&lt;div&gt;ticket&lt;/div&gt;" style="rounded=0;whiteSpace=wrap;html=1;fontFamily=Helvetica;fontSize=12;fontColor=#000000;align=center;" vertex="1" parent="RPcaswgte-qVBd7CzCNU-19">
          <mxGeometry x="20" y="80" width="80" height="40" as="geometry" />
        </mxCell>
        <mxCell id="RPcaswgte-qVBd7CzCNU-81" value="" style="endArrow=classic;html=1;rounded=0;entryX=0.588;entryY=-0.025;entryDx=0;entryDy=0;entryPerimeter=0;" edge="1" parent="RPcaswgte-qVBd7CzCNU-19" target="RPcaswgte-qVBd7CzCNU-78">
          <mxGeometry width="50" height="50" relative="1" as="geometry">
            <mxPoint x="64" y="50" as="sourcePoint" />
            <mxPoint x="114" as="targetPoint" />
          </mxGeometry>
        </mxCell>
        <mxCell id="RPcaswgte-qVBd7CzCNU-20" style="swimlane;swimlaneHead=0;swimlaneBody=0;fontStyle=0;strokeColor=inherit;connectable=0;fillColor=none;startSize=130;collapsible=0;recursiveResize=0;expand=0;" vertex="1" parent="RPcaswgte-qVBd7CzCNU-16">
          <mxGeometry x="370" width="120" height="210" as="geometry">
            <mxRectangle width="120" height="210" as="alternateBounds" />
          </mxGeometry>
        </mxCell>
        <mxCell id="RPcaswgte-qVBd7CzCNU-93" value="" style="endArrow=classic;html=1;rounded=0;" edge="1" parent="RPcaswgte-qVBd7CzCNU-20" target="RPcaswgte-qVBd7CzCNU-86">
          <mxGeometry width="50" height="50" relative="1" as="geometry">
            <mxPoint x="-34" y="95.58441558441564" as="sourcePoint" />
            <mxPoint x="46" y="80" as="targetPoint" />
          </mxGeometry>
        </mxCell>
        <mxCell id="RPcaswgte-qVBd7CzCNU-96" value="" style="endArrow=none;html=1;rounded=0;" edge="1" parent="RPcaswgte-qVBd7CzCNU-20">
          <mxGeometry width="50" height="50" relative="1" as="geometry">
            <mxPoint x="-29" y="29.5" as="sourcePoint" />
            <mxPoint x="91" y="29.5" as="targetPoint" />
          </mxGeometry>
        </mxCell>
        <mxCell id="RPcaswgte-qVBd7CzCNU-21" style="swimlane;swimlaneHead=0;swimlaneBody=0;fontStyle=0;strokeColor=inherit;connectable=0;fillColor=none;startSize=130;collapsible=0;recursiveResize=0;expand=0;" vertex="1" parent="RPcaswgte-qVBd7CzCNU-16">
          <mxGeometry x="490" width="120" height="210" as="geometry">
            <mxRectangle width="120" height="210" as="alternateBounds" />
          </mxGeometry>
        </mxCell>
        <mxCell id="RPcaswgte-qVBd7CzCNU-86" value="Enviar&amp;nbsp;&lt;div&gt;correo al&lt;/div&gt;&lt;div&gt;cliente&amp;nbsp;&lt;/div&gt;" style="strokeWidth=2;html=1;shape=mxgraph.flowchart.terminator;whiteSpace=wrap;" vertex="1" parent="RPcaswgte-qVBd7CzCNU-21">
          <mxGeometry x="10" y="70" width="100" height="50" as="geometry" />
        </mxCell>
        <mxCell id="RPcaswgte-qVBd7CzCNU-76" value="Notificar&amp;nbsp;" style="rounded=0;whiteSpace=wrap;html=1;fontFamily=Helvetica;fontSize=12;fontColor=#000000;align=center;" vertex="1" parent="RPcaswgte-qVBd7CzCNU-21">
          <mxGeometry x="17.5" y="10" width="80" height="40" as="geometry" />
        </mxCell>
        <mxCell id="RPcaswgte-qVBd7CzCNU-71" value="Enviar&amp;nbsp;&lt;div&gt;corrección al&amp;nbsp;&lt;/div&gt;&lt;div&gt;cliente&lt;/div&gt;" style="rounded=0;whiteSpace=wrap;html=1;fontFamily=Helvetica;fontSize=12;fontColor=#000000;align=center;" vertex="1" parent="RPcaswgte-qVBd7CzCNU-21">
          <mxGeometry x="10" y="150" width="100" height="40" as="geometry" />
        </mxCell>
        <mxCell id="RPcaswgte-qVBd7CzCNU-91" value="" style="endArrow=classic;html=1;rounded=0;" edge="1" parent="RPcaswgte-qVBd7CzCNU-21">
          <mxGeometry width="50" height="50" relative="1" as="geometry">
            <mxPoint x="59.5" y="50" as="sourcePoint" />
            <mxPoint x="60" y="70" as="targetPoint" />
          </mxGeometry>
        </mxCell>
        <mxCell id="RPcaswgte-qVBd7CzCNU-92" value="" style="endArrow=classic;html=1;rounded=0;" edge="1" parent="RPcaswgte-qVBd7CzCNU-21">
          <mxGeometry width="50" height="50" relative="1" as="geometry">
            <mxPoint x="59.5" y="120" as="sourcePoint" />
            <mxPoint x="60" y="150" as="targetPoint" />
          </mxGeometry>
        </mxCell>
        <mxCell id="RPcaswgte-qVBd7CzCNU-54" value="" style="endArrow=classic;html=1;rounded=0;exitX=0.5;exitY=1;exitDx=0;exitDy=0;" edge="1" parent="RPcaswgte-qVBd7CzCNU-9" source="RPcaswgte-qVBd7CzCNU-25">
          <mxGeometry width="50" height="50" relative="1" as="geometry">
            <mxPoint x="560" y="290" as="sourcePoint" />
            <mxPoint x="61" y="340" as="targetPoint" />
            <Array as="points" />
          </mxGeometry>
        </mxCell>
        <mxCell id="RPcaswgte-qVBd7CzCNU-56" value="no" style="text;html=1;align=center;verticalAlign=middle;resizable=0;points=[];autosize=1;strokeColor=none;fillColor=none;" vertex="1" parent="1">
          <mxGeometry x="250" y="298" width="40" height="30" as="geometry" />
        </mxCell>
        <mxCell id="RPcaswgte-qVBd7CzCNU-98" value="&lt;font style=&quot;font-size: 18px;&quot;&gt;Diagrama de flujo de Carriles&lt;/font&gt;" style="text;html=1;align=center;verticalAlign=middle;whiteSpace=wrap;rounded=0;" vertex="1" parent="1">
          <mxGeometry x="200" y="200" width="420" height="30" as="geometry" />
        </mxCell>
      </root>
    </mxGraphModel>
  </diagram>
</mxfile>
